<?xml version="1.0" encoding="UTF-8"?>
<!DOCTYPE svg PUBLIC "-//W3C//DTD SVG 1.1//EN" "http://www.w3.org/Graphics/SVG/1.1/DTD/svg11.dtd">
<!-- Creator: CorelDRAW 2021 (64-Bit) -->
<svg xmlns="http://www.w3.org/2000/svg" xml:space="preserve" width="297mm" height="210mm" version="1.1" style="shape-rendering:geometricPrecision; text-rendering:geometricPrecision; image-rendering:optimizeQuality; fill-rule:evenodd; clip-rule:evenodd"
viewBox="0 0 29700 21000"
 xmlns:xlink="http://www.w3.org/1999/xlink"
 xmlns:xodm="http://www.corel.com/coreldraw/odm/2003">
 <defs>
  <style type="text/css">
   <![CDATA[
    .fil0 {fill:black}
   ]]>
  </style>
 </defs>
 <g id="Layer_x0020_1">
  <metadata id="CorelCorpID_0Corel-Layer"/>
  <path class="fil0" d="M8423.02 9939.43c0,1038.31 92.58,1590.93 431.73,2541.43 28.72,80.48 54.31,122.38 92.27,197.8 40.84,81.15 56.95,136.06 96.01,218.23 199.79,420.37 550.71,965.14 872.6,1302.89 63.6,66.72 82.99,105.71 144.56,169.67 107.66,111.86 204.83,203.83 314.72,313.75 209.58,209.64 441.98,398.6 692.6,564.36 254.29,168.19 496.44,322.42 771.78,460.99 187.45,94.33 753.71,346.42 958.87,346.42 172.24,0 290.07,-157.12 290.07,-338.41l0 -1136.09c-145.43,3.24 -234.68,48.35 -410.93,48.35 -747.02,0 -1368.96,-38.75 -1685.35,-780.2 -151.54,-355.16 -355.64,-703.4 -688.49,-906.86 -95.61,-58.45 -225.74,-162.88 -236.74,-295.05 308.21,-206.39 790.6,80.63 1009.87,295.41 293.23,287.24 518.3,979.77 1207.13,947.96 294.63,-13.6 515.9,-6.25 750.86,-136.77 142.7,-79.26 70.14,-329.36 275.15,-643.38 54.34,-83.23 138.51,-121.34 165.25,-221.5 -180.5,-15.02 -428.99,-62.69 -602.58,-98.42 -642.94,-132.3 -1196.84,-411.03 -1613.88,-900 -173.73,-203.69 -287.74,-447.09 -379.32,-708.43 -317.11,-904.91 -312.69,-1974.44 240.88,-2775.2 204.08,-295.2 186.7,-129.03 101.23,-491.73 -92.69,-393.33 0.56,-1383.48 199.05,-1383.48 357.29,0 604.05,118.02 897.85,238.24 424.86,173.86 666.83,431.42 822.46,397.95 367.67,-79.05 692.57,-180.11 1083.65,-176.92 183.36,1.5 284.91,-35.49 483.53,-24.32 432.81,24.36 895.98,71.63 1315.3,184.89 95.94,25.92 106.33,43.67 178.9,6.16 300.12,-155.16 321.16,-235.74 815.87,-442.98 310.46,-130.06 397.38,-183.02 832.21,-183.02 90.17,387.05 193.37,320.83 193.37,1039.4 0,125.3 -13.92,211.75 -38.25,324.32 -17.52,81.02 -79.81,231.35 -74.05,276.24 11.61,90.41 1070.35,1031.02 417.51,2992.05 -237.98,714.86 -757.12,1186.27 -1441.23,1459.42 -332.26,132.67 -811.94,257.53 -1184.49,265.83 158.11,236.12 273.98,250.64 356.84,610.04 133.32,578.31 -23.12,1969.84 79.14,2338.06 40.06,144.25 154.79,218.44 313.35,218.44 157.04,0 757.18,-270.36 894.72,-338.05 202.04,-99.44 419.93,-207.72 600.56,-342.16l532 -386.54c232.21,-185 440.06,-394.26 650.25,-606.69 64.59,-65.29 81.75,-103.78 144.55,-169.7 341.81,-358.81 660.51,-855.98 876.78,-1298.69 363.07,-743.2 627.94,-1634.39 627.94,-2490.26 0,-823.72 -57.26,-1630.95 -359.08,-2372.37 -147.16,-361.5 -291.42,-680.79 -479.31,-1019.36l-297.52 -451.81c-213.6,-302.8 -433.23,-565.4 -695.12,-827.72 -565.94,-566.84 -1283.45,-1037.41 -2025.89,-1334.03 -98.25,-39.25 -194,-74.5 -279.99,-106.77 -1056.19,-396.31 -2400.37,-440.06 -3501.22,-172.44 -582.32,141.56 -1090.09,358.86 -1611.75,636.26 -469.37,249.59 -921.54,602.73 -1295.19,976.98 -369.01,369.6 -720.89,807.17 -984.05,1263.96 -93.03,161.48 -170.22,314.68 -258.84,490.49 -294.35,583.97 -588.14,1568.12 -588.14,2433.36z"/>
 </g>
</svg>
