<svg viewBox="0 0 14 13" fill="none" xmlns="http://www.w3.org/2000/svg">
  <path
    d="M14 2.4161C13.4853 2.65739 12.9314 2.82015 12.3503 2.89299C12.9437 2.51831 13.3987 1.92482 13.6132 1.21682C13.0582 1.56422 12.4438 1.81631 11.7893 1.95239C11.2655 1.36369 10.519 0.995605 9.69283 0.995605C8.10677 0.995605 6.82082 2.35195 6.82082 4.02513C6.82082 4.26223 6.84611 4.49333 6.89528 4.71544C4.50809 4.58895 2.39145 3.38308 0.974768 1.55013C0.727524 1.99735 0.585998 2.51771 0.585998 3.07344C0.585998 4.12435 1.09299 5.05176 1.86371 5.5949C1.39309 5.57901 0.950044 5.44263 0.562694 5.21572C0.56241 5.22831 0.56241 5.2412 0.56241 5.25409C0.56241 6.72164 1.55252 7.9458 2.86661 8.22456C2.62562 8.2935 2.37184 8.33067 2.10982 8.33067C1.92453 8.33067 1.74464 8.31179 1.56929 8.27612C1.93504 9.47959 2.99564 10.3557 4.25232 10.38C3.26931 11.1926 2.0311 11.677 0.68518 11.677C0.453566 11.677 0.224793 11.6626 0 11.6345C1.27146 12.4944 2.78107 12.9956 4.40294 12.9956C9.6863 12.9956 12.5751 8.37953 12.5751 4.37613C12.5751 4.24484 12.5725 4.11385 12.5671 3.98377C13.1281 3.55753 13.6152 3.02368 14 2.4161Z"
    fill="#000000" />
</svg>